#!OML:ASF F:\VICON\USERDATA\INSTALL\Justin_Nancy\Justin_Nancy.ASF
:FULLY-SPECIFIED
:DEGREES
87
root -1.97841 15.839 6.20338 -23.2059 -74.9388 39.7257
lowerback 15.3075 1.9177 3.41938
upperback 1.36662 3.2132 2.61065
thorax -7.09108 1.45349 0.174527
lowerneck -18.2223 -4.75834 -10.4649
upperneck 10.5264 -4.31075 3.2948
head 6.46736 -2.25164 2.26642
rclavicle -1.35174e-014 1.59028e-014
rhumerus -29.128 15.0381 -91.2495
rradius 125.588
rwrist -12.7708
rhand -19.297 31.2218
rfingers 7.12502
rthumb 7.01846 1.35812
lclavicle -1.35174e-014 1.59028e-014
lhumerus -67.8289 -10.1289 85.1031
lradius 104.239
lwrist 25.0544
lhand -15.1626 4.02452
lfingers 7.12502
lthumb 11.008 33.7159
rfemur -4.17891 0.80404 30.7816
rtibia 35.6408
rfoot -23.8816 -7.15518
rtoes 1.25763
lfemur -46.5988 13.1543 -8.84101
ltibia 81.0852
lfoot -10.275 -3.2426
ltoes -9.52298
88
root -2.30925 15.8539 6.38902 -20.3371 -75.0773 36.9589
lowerback 15.4662 2.08197 4.23319
upperback 1.20662 3.58812 2.66754
thorax -7.29866 1.60368 -0.307742
lowerneck -17.8131 -5.18514 -10.4928
upperneck 10.134 -4.93725 3.37513
head 6.31948 -2.54457 2.23223
rclavicle 0 9.54166e-015
rhumerus -28.5977 15.0843 -91.0523
rradius 127.65
rwrist -13.3384
rhand -19.9525 32.1484
rfingers 7.12502
rthumb 6.38564 2.2647
lclavicle 0 9.54166e-015
lhumerus -69.0145 -10.2613 84.8963
lradius 104.886
lwrist 24.6618
lhand -14.3723 3.71045
lfingers 7.12502
lthumb 11.7701 33.3597
rfemur -1.76011 2.50884 31.3412
rtibia 33.1454
rfoot -21.791 -6.73572
rtoes 1.18144
lfemur -49.3401 12.8888 -8.84029
ltibia 79.5443
lfoot -10.9676 -3.559
ltoes -12.3998
89
root -2.6649 15.8786 6.57474 -18.6885 -74.9178 35.5059
lowerback 15.2201 2.21193 4.79529
upperback 1.21707 3.82706 2.50181
thorax -7.09412 1.70517 -0.836737
lowerneck -17.868 -5.64162 -10.5647
upperneck 10.067 -5.57272 3.69377
head 6.36164 -2.82519 2.27264
rclavicle 6.83819e-014 1.90833e-014
rhumerus -28.1722 15.2724 -90.7096
rradius 129.458
rwrist -13.7343
rhand -20.5944 33.2961
rfingers 7.12502
rthumb 5.76596 3.39452
lclavicle 6.83819e-014 1.90833e-014
lhumerus -69.7244 -10.5558 84.5916
lradius 105.516
lwrist 24.9807
lhand -13.7444 3.15294
lfingers 7.12502
lthumb 12.3755 32.7666
rfemur 0.50293 4.07983 31.4498
rtibia 31.0368
rfoot -19.4281 -6.09791
rtoes -0.0824535
lfemur -51.6062 12.2461 -9.40301
ltibia 77.4743
lfoot -12.0336 -3.50085
ltoes -20.8817
90
root -3.04546 15.9297 6.75688 -19.0589 -74.2147 36.2887
lowerback 14.617 2.23314 4.89815
upperback 1.28981 3.79874 1.95201
thorax -6.63583 1.70042 -1.44196
lowerneck -18.0858 -6.05625 -10.5494
upperneck 10.0564 -6.18565 4.23531
head 6.45399 -3.0708 2.36982
rclavicle -4.37326e-014 -1.59028e-014
rhumerus -28.0176 15.6905 -90.4171
rradius 131.054
rwrist -14.046
rhand -21.0529 34.1094
rfingers 7.12502
rthumb 5.32323 4.19628
lclavicle -4.37326e-014 -1.59028e-014
lhumerus -69.9822 -10.7721 83.9891
lradius 106.047
lwrist 25.5318
lhand -12.9019 3.26354
lfingers 7.12502
lthumb 13.1878 32.8264
rfemur 2.41987 4.63119 30.4716
rtibia 29.263
rfoot -16.6733 -3.89233
rtoes -1.61914
lfemur -53.4661 11.0295 -10.667
ltibia 74.8617
lfoot -13.2848 -3.83415
ltoes -26.7712
91
root -3.42836 15.989 6.93428 -18.7186 -73.3617 36.1052
lowerback 14.2945 2.09884 5.27357
upperback 1.36426 3.62658 1.42727
thorax -6.32753 1.61407 -2.15671
lowerneck -18.2297 -6.31738 -10.541
upperneck 9.93829 -6.58929 4.7163
head 6.48544 -3.22035 2.47431
rclavicle 3.18055e-015 0
rhumerus -28.1991 16.171 -90.3047
rradius 132.288
rwrist -13.7247
rhand -21.6597 34.7774
rfingers 7.12502
rthumb 4.73735 4.85035
lclavicle 3.18055e-015 0
lhumerus -70.0667 -10.8585 83.5319
lradius 106.532
lwrist 25.9563
lhand -12.6588 3.69335
lfingers 7.12502
lthumb 13.4221 33.2409
rfemur 4.34071 5.53743 29.8935
rtibia 27.8463
rfoot -12.7837 -0.861014
rtoes -1.33242
lfemur -54.7279 9.27115 -11.3238
ltibia 71.8583
lfoot -12.9518 -5.39121
ltoes -21.2972
92
root -3.79574 16.0248 7.10034 -16.635 -72.7128 33.4442
lowerback 14.8613 1.93015 5.93413
upperback 1.44236 3.54026 1.44715
thorax -6.52542 1.5454 -2.51367
lowerneck -17.9951 -6.57033 -10.6101
upperneck 9.57831 -6.96445 4.94046
head 6.37038 -3.38479 2.51983
rclavicle 7.95139e-016 9.54166e-015
rhumerus -28.5059 16.1025 -90.1781
rradius 133.202
rwrist -12.8434
rhand -21.5835 35.332
rfingers 7.12502
rthumb 4.81093 5.40661
lclavicle 7.95139e-016 9.54166e-015
lhumerus -70.0334 -10.8524 83.7077
lradius 106.687
lwrist 26.3185
lhand -12.8986 3.69834
lfingers 7.12502
lthumb 13.191 33.261
rfemur 6.73314 7.39805 30.7074
rtibia 26.7358
rfoot -7.39289 2.47929
rtoes 1.17226
lfemur -55.1954 7.67779 -10.921
ltibia 68.6818
lfoot -12.733 -7.37377
ltoes -17.8188
